<svg xmlns="http://www.w3.org/2000/svg" width="939.076" height="405.678" viewBox="0 0 939.076 405.678">
  <g id="EduPortal_Logo" data-name="EduPortal Logo" transform="translate(-184.79 -168.602)">
    <text id="www.EduPortal.ME" transform="translate(418.865 551.392)" fill="#fff" font-size="49.61" font-family="SegoeUI-Semibold, Segoe UI" font-weight="600" letter-spacing="0.02em"><tspan x="0" y="0">www.EduPortal.ME</tspan></text>
    <text id="EduPortal" transform="translate(406.009 327.602)" fill="#fff" font-size="147.42" font-family="SegoeUI-Semibold, Segoe UI" font-weight="600" letter-spacing="0.01em"><tspan x="0" y="0">Edu</tspan><tspan y="0" font-family="SegoeUI-Light, Segoe UI" font-weight="300">Portal</tspan></text>
    <g id="Group_9277" data-name="Group 9277">
      <path id="Path_14299" data-name="Path 14299" d="M260.19,315.345a.023.023,0,0,0-.023.023l37.6-.023h.069l68.482-.046v76.135l-68.482-.046h-.069l-37.6-.023a13010786237.356,13010786237.356,0,0,1,.046.046c10.71,17.19,30.5,29.669,63.748,29.692l42.354.023v59.91l-42.354-.046c-92.152-.023-136.022-55.659-139.055-125.475l-.116-1.585c0-.9.047-1.793.116-2.689,3.033-69.838,46.9-125.452,139.055-125.5l42.354-.023v59.888l-42.354.046C290.685,285.677,270.9,298.179,260.19,315.345Z" fill="#fff"/>
    </g>
    <path id="Path_14300" data-name="Path 14300" d="M259.355,315.363s-18.633,35.447-.1,76.039h38.568V315.343Z" fill="#fff"/>
    <path id="Path_14301" data-name="Path 14301" d="M259.3,315.363s-18.633,35.447-.1,76.039h38.569V315.343Z" fill="#fff"/>
    <path id="Path_14302" data-name="Path 14302" d="M366.315,516.506v57.36a44.724,44.724,0,0,1-6.113.414,47.455,47.455,0,0,1-47.455-47.456,46.423,46.423,0,0,1,1.149-10.318Z" fill="#fff"/>
    <text id="بوابة_التعليم" data-name="بوابة التعليم" transform="translate(418.866 460.965)" fill="#fff" font-size="142.25" font-family="SegoeUI, Segoe UI"><tspan x="0" y="0">بوابة التعليم</tspan></text>
  </g>
</svg>
