<svg xmlns="http://www.w3.org/2000/svg" width="713.117" height="150.294" viewBox="0 0 713.117 150.294">
  <path id="Union_38" data-name="Union 38" d="M47.233-7087.7a53.791,53.791,0,0,1,3.157-7.5q-3.291-8.152-7.1-15.785c.087-.391.572-.385,1.057-.379a4.1,4.1,0,0,0,.52-.013c1.11.5,1.5,2.136,1.974,3.157,1.351,2.9,2.746,6.864,4.734,9.863,1.842-3.1,2.814-7.069,4.735-10.653.456-.85.554-3.037,2.367-2.367,1.132.5-.16,2.178-.394,2.761-1.944,4.85-4.786,10.374-7.1,15.785-.779,1.819-.942,5.159-3.511,5.159A3.329,3.329,0,0,1,47.233-7087.7Zm37.484-6.314c-3.907-.825-6.828-5.582-6.312-10.261,1.1-10.008,17.6-10.593,17.756,1.187-1.942.092-4.029.043-6.114-.006a46.739,46.739,0,0,0-9.671.4c.285,7.344,7.771,8.466,12.232,4.737.7-.587.894-2.514,2.369-1.579-.262,3.8-3.934,5.775-7.845,5.775A11.735,11.735,0,0,1,84.716-7094.011Zm-3.945-10.653h13.02c-.152-3.554-3.322-5.324-6.5-5.324S80.928-7108.209,80.771-7104.665ZM20.273-7094c-.5-.014-1-.029-1.451-.016-1.321.035-2.7.018-4.031,0-1.23-.015-2.416-.029-3.466,0v-23.279a29.545,29.545,0,0,0,5.475-.176,36.317,36.317,0,0,1,5.179-.22,5.284,5.284,0,0,0,.761-.063c.876-.107,1.971-.214,2,.854.3,1.967-1.758,1.813-3.586,1.658a14.374,14.374,0,0,0-1.544-.08c-1.215.036-2.427.02-3.54,0-1.034-.014-1.984-.031-2.774,0a43.162,43.162,0,0,1,.394,7.5c.8.013,1.724.006,2.688,0,1.061-.007,2.172-.017,3.231,0,.46.007.972-.033,1.491-.072,1.524-.117,3.113-.233,3.638.863-.093,1.564-1.82,1.415-3.511,1.266a14.746,14.746,0,0,0-1.618-.083c-1.05.029-2.165.015-3.221,0-.985-.013-1.92-.025-2.7,0v9.075c.939.538,2.385.481,3.96.425.639-.023,1.3-.047,1.96-.029.46.009.985-.029,1.519-.069,1.54-.114,3.171-.229,3.611.857-.261,1.4-1.733,1.617-3.356,1.617C21.018-7093.973,20.644-7093.984,20.273-7094Zm124.024-20.14a12.182,12.182,0,0,1,6.708-3.945c.035-.009.12-.347.394-.4,18.231-3.1,19.89,23.361,3.947,24.465-.276.019-.553.028-.826.029C144.982-7093.981,137.608-7105.442,144.3-7114.135Zm7.5-1.973c-7.7,1.666-10.286,11.525-5.13,16.967,5.558,5.864,17.983,3.094,17.757-7.5-.119-5.609-4.044-9.781-9.814-9.781A13.284,13.284,0,0,0,151.794-7116.108Zm164.539,8.286c2.588-7.254,17.843-6.953,16.965,3.945H317.911c-.77,6.939,7.126,8.641,11.442,5.13.725-.589,1.408-1.909,2.367-1.577,2.205,1.017-1.23,3.974-2.761,4.733a9.19,9.19,0,0,1-4.1,1C318.727-7094.588,314.011-7101.316,316.333-7107.822Zm1.578,2.369h13.414c-.207-3.582-3.45-5.368-6.7-5.368S318.121-7109.028,317.911-7105.453Zm-65.106,6.312c-.269-4.924.2-11.616,0-16.573-.347-.62-1.428-.5-2.508-.389-1.275.136-2.55.272-2.619-.794.074-1.559,2.677-1.411,4.943-1.266.8.053,1.568.105,2.16.082,2.014-.084,5.467-1.615,5.524.79.163,1.527-1.373,1.358-2.908,1.188a6.13,6.13,0,0,0-2.221-.005c-.089,5.177.116,10.938,0,16.573-.033,1.561.7,3.838-.788,4.735a2.458,2.458,0,0,1-.426.041C251.954-7094.759,252.875-7097.876,252.805-7099.141Zm-65.1.789a78.089,78.089,0,0,1,.394-13.416c2.552-.97.926,2.232,1.974,2.763l-.2.725.592.459c-.915,1.488-.73,4.561-.79,7.891-.031,1.808.678,4.429-.788,5.131a1.966,1.966,0,0,1-.258.018C186.985-7094.782,187.763-7097.227,187.7-7098.353Zm13.02-.394c-.258-6.089.968-12.742-6.706-11.838l.2-.723-4.081,2.845c1.337-.979,2.374-2.43,4.081-2.845l-.592-.461c2.614-1.9,7.734.118,8.679,3.947.46,1.858-.105,4.792,0,7.1.107,2.357,1.386,4.717-.394,5.919C199.8-7094.812,200.766-7097.7,200.721-7098.747Zm211.888,0c-1.01-2.22-.981-7.409-.79-11.048.042-.775-.643-2.721.79-2.763,2.083.013,1.132,2.734,1.182,3.945.147,3.435-.292,8.426,1.578,10.259,2.459,2.407,7.671,1.709,9.075-1.183,1.885-3.878-.932-9.175.79-13.022.559.033,1.117.065,1.184-.392.336-.075.372.15.394.392-.876,6.118,1.795,11.538-1.578,15.389a7.35,7.35,0,0,1-5.563,2.186C416.737-7094.982,413.726-7096.294,412.609-7098.747Zm64.316.394c-2.2-3.923.022-9.3-.79-14.6h.79c2.089.056,1.152,3.555,1.182,5.522.084,5.3-.576,9.856,4.735,10.259,5.331.407,6.379-3.763,6.314-9.863-.02-1.882-1.361-4.392.394-5.918,2.4-.652,1.488,2.616,1.577,3.943.305,4.423-.22,10.375-2.367,12.232a7.9,7.9,0,0,1-5.131,1.687C480.905-7095.087,478.132-7096.2,476.925-7098.353Zm-183.872-1.971c-.18-5.637.808-11.638-6.314-10.657l.2-.721-4.058,2.837.7-.142c-1.491,1.653-1.469,5.26-1.578,9.471-.036,1.384.676,3.834-.79,4.339-2.138-.21-1.133-3.368-1.182-4.735-.183-5.135.138-11.968,0-17.359v-1.579h.788c1.905-.374,1.106,2.318,1.184,3.945.1,2.042-.391,4.626.394,5.524l.48.536a6.861,6.861,0,0,1,4.058-2.837l-.59-.459c7.317-2.626,8.808,3.413,8.681,11.442-.035,2.158.672,4.586-.79,5.523C292.1-7095.49,293.108-7098.585,293.054-7100.323Zm245.031-3.553c-.739-12.233,17.872-13.365,17.756-.788H540.451c-1.359,6,7.235,9.269,11.838,5.129.523-.47.7-2.356,1.973-1.578,1.96,1.336-2.145,4.635-3.551,5.127a9.609,9.609,0,0,1-3.181.538C542.838-7095.448,538.39-7098.814,538.084-7103.876Zm2.367-2.365h13.02c0-3.679-3.076-5.408-6.241-5.408C543.923-7111.65,540.524-7109.763,540.451-7106.241Zm-89.962,7.495c-.2-3.388.145-8.574,0-12.234-.044-.556-.725-.476-1.4-.394-.812.094-1.624.191-1.359-.787-.209-.992.672-.894,1.553-.793a3.334,3.334,0,0,0,1.21.005v-6.316h1.973v5.92c.149.574.963.483,1.775.394s1.626-.18,1.776.394c.36,1.355-.71,1.281-1.778,1.2-.77-.053-1.539-.107-1.773.372-.125,3.744.163,8.062,0,12.234-.04,1,.645,3.012-.79,3.157a1.884,1.884,0,0,1-.327.031C449.848-7095.559,450.542-7097.833,450.489-7098.747Zm-70.236-1.577c-.183-5.137.138-11.97,0-17.363v-1.183c.558.015,1.528.005,2.628,0,1.2-.009,2.548-.019,3.686,0,.454.007.97-.031,1.495-.071,1.555-.114,3.2-.229,3.635.859-.249,1.62-2.756,1.406-5.231,1.193a13.491,13.491,0,0,0-3.845-.009c-.852,1.909-.18,5.342-.392,7.891.7.016,1.5.007,2.349,0,.9-.011,1.845-.02,2.779,0a12.649,12.649,0,0,0,1.288-.067c1.335-.112,2.75-.225,3.053.857-.249,1.62-2.756,1.406-5.231,1.193a13.507,13.507,0,0,0-3.845-.009c-.748,1.3-.349,3.8-.392,5.918s.676,4.781-.79,5.523C379.3-7095.8,380.3-7098.958,380.253-7100.323Zm132.578,4.337c-1.559-1.155-.663-3.511-.788-5.522-.236-3.738-.97-8.2,0-11.441,2.367-.921,1.028,1.862,1.973,2.365l.479.536a5.643,5.643,0,0,1,2.085-2.049l-.592-.459c1.153-1.228,2.427-1.066,4.339-.788-.489,2.361-1.773,1.526-3.943,1.973l.2-.725-2.085,2.049.7-.142c-2.194,3.066-.429,10.094-1.578,14.2Zm93.909-15.387c3.529-10.875,24.387-8.9,21.307,7.1-1.391,1.571-1.589,3.521-2.761,4.737a10.308,10.308,0,0,1-7.534,3.147C610.855-7096.387,603.9-7102.629,606.74-7111.373ZM580.3-7109.4a13.017,13.017,0,0,1,1.182-3.157c.236-.417.994-.49,1.186-.788.351-.549,0-1.143.392-1.579a11.692,11.692,0,0,1,5.92-3.157,11.1,11.1,0,0,1,13.416,11.441c-.3,6.738-5.432,9.889-10.691,9.889C585.45-7096.749,579.009-7101.211,580.3-7109.4Zm-390.172.938q-.128.094-.26.181ZM.672-7132.285c-1.232-3.475-.394-9.794-.394-14.995v-30.382c0-5.107-.391-11.908,1.184-13.81,2.192-2.65,9.222-1.973,14.993-1.973,6.143,0,11.8-.583,14.6,1.973,1.422,6.61.788,14.462.788,22.1v22.491h64.71v-67.473c0-6.65-1.232-18.215,1.578-20.915,2.556-2.452,10.728-1.577,16.571-1.577,3.66,0,9.563-.7,11.838,1.577,3.121,3.123,1.578,14.141,1.578,20.915v67.077c124.169.721,255.733.4,383.132.4,8.023,0,20.765.916,23.281-1.975,2.708-3.11,1.184-15.063,1.184-22.1,0-5.642-1.513-17.572,1.971-20.911,3.206-3.072,26.313-2.65,28.8.394,2.708,3.308,1.184,15.385,1.184,20.913,0,4.537-1.449,17.908.788,21.309,2.307,3.5,14.713,3.228,17.361.788,3.389-3.124,1.973-14.19,1.974-21.309,0-5.667-1.809-18.014,1.182-21.7,2.561-3.159,26.46-3.335,29.2,0,2.67,3.253,1.182,14,1.182,21.307,0,6.341-1.568,18.068,1.184,21.307,2.425,2.855,9.291,2.416,15.965,1.975,4.221-.278,8.367-.556,11.26,0-7.088-1.64-7.1-7.782-7.1-18.548,0-4.439,0-8.8,0-13.018,0-5.209-1.686-21.162,1.973-24.071,2.6-2.069,10-1.183,14.995-1.183H689.6c4.548,0,12.414-.841,15,.788,3.649,2.305,2.365,13.269,2.365,19.73v21.7a165.844,165.844,0,0,1-18.2.4c-3.845-.051-7.693-.1-11.389,0-.712-4.35-.394-9.687-.394-15.783,0-4.91,1.2-12.984-2.761-13.415-3.631-.4-3.528,3.246-3.553,7.891-.022,4.194,0,7.649,0,11.047,0,7.431-1.161,17.178,1.186,20.913,2.874,4.578,12.2,3.553,18.544,3.553h21.7v14.2c.283.941-.45.864-1.184.788s-1.466-.151-1.182.79c-.874.311-.986,1.379-1.577,1.973-5.235,4.863-13.792,3.945-26.044,3.945H37.764c-4.314,0-9.47.256-14.558.256C12.92-7124.927,2.909-7125.972.672-7132.285ZM193.728-7155.9c-.447-2.141.8-4.283,5.417-3.611,1.658,1.48,2.741,4.052,1.184,5.92a3.454,3.454,0,0,1-2.65,1.428C195.8-7152.164,194.119-7154.032,193.728-7155.9Zm-21.218-1.177a17.815,17.815,0,0,1-9.077,0l.2.723c-8.252-.53-13.073-7.887-13.81-15.783-.262-2.815.721-8.2-.788-10.653l.592-.2a5.723,5.723,0,0,1-1.38-.594l1.38.594-.2-.594h6.708l-.2.594c.081-.037.162-.071.241-.1l-.241.1.592.2c-3.914,9.3-.265,22.6,7.5,25.252l-.594.461h9.077l-.592-.461c3.438-1.9,7.8-5.338,8.681-11.442.625-4.345,0-10.955,0-16.967,0-7.925.518-14.975-.79-19.334l.594-.459-.2-.725c1.5-.6,3.351-.857,4.734-1.579h.79c-1.057,13.411.287,29.223-.79,42.613a36.48,36.48,0,0,0,8.648.4c1.9-.051,3.805-.1,5.558,0,.447-6.385,1.342-16.585-1.184-21.307l.592-.2-.2-.59c2.225-.67,4.725-1.064,7.1-1.579v23.673h12.232c-2.527-2.85-5.015-5.976-5.13-10.653-.16-6.548,4.129-11.774,10.259-12.627l-.2.594a10.345,10.345,0,0,1,7.891,0l-.2-.594c10.848.427,12.771,18.206,4.735,23.281h21.7c.5-6.03,1.03-15.5-.4-20.913l.2-.592c-.164-.016-.332-.042-.5-.071l.5.071-.2-.59a50.1,50.1,0,0,1,7.1-1.579c-.472,7.42-.434,15.349-.4,23.277,12.2,4.8,13.367-10.817,9.865-18.938l.592-.459c-.263-.1-.527-.205-.79-.329l.79.329-.2-.723h7.1l-.2.723.59.459c-2.152,2.9-1.729,9.389-1.182,13.811l-.592.459c.121.163.234.333.343.508l-.343-.508.2.725c-1.575,1.306-2.078,4.056-3.553,5.13-4.472,3.258-17.57,1.578-26.436,1.578h-65.1c-3.17,2.879-6.388,5.711-11.838,6.312Zm50.7-30.449c-6.141,2.914-6.327,18.251-1.182,22.491H231.1c5-4.472,4.919-19.343-1.184-22.491l.592-.2h-7.891Zm112.257,28.607.2.592c-3.894-.052-5.22-2.672-7.5-4.339-.921-.007-1.86.005-2.8.017-5.19.065-10.379.131-12.591-2.781-2.478,3.553-12.8,4.151-14.2-.788l.7.142.478-.534c1.2.362,1.248.934,1.973,1.181,9.8,3.377,9.941-12.437,6.708-18.938l.594-.459-.09-.03.09.03-.2-.723h7.5l-.2.723.048-.016-.048.016.592.459c-3.308,8.07-3.368,22.96,9.865,19.334-2.55-8.512,1.026-16.547,8.285-17.755l.2.592a10.272,10.272,0,0,1,9.075,0h-9.075l.592.2c-5.778,4.065-5.793,19.265.394,22.885l-.592.2h8.287l-.592-.2c6.121-3.722,6.127-18.74.4-22.885l.59-.2.2-.592c6.828,1.2,10.581,9.22,7.891,17.359a24.709,24.709,0,0,0,7.008.4c1.524-.047,3.048-.093,4.436,0,.52-.674-1.5-2.165-1.578-3.551-1.284-10.731,1.717-24.033,0-33.935a6.725,6.725,0,0,0-1.184-2.761l.592-.459c-.263-.1-.527-.205-.788-.329l.788.329-.2-.725c2.047-.451,3.778-1.221,5.92-1.579-.1,13.708-1.895,32.361,1.182,44.194l-.59.459.986.329a7.241,7.241,0,0,1-.986-.329l.2.725H351.45c-2.7,1.37-4.06,4.1-7.891,4.339l.2-.592a10.581,10.581,0,0,1-4.163.852A10.3,10.3,0,0,1,335.469-7158.919Zm125.673-3.748c-2.307-.325-5.489-1.923-6.314-3.945-1.321-3.235.45-5.75-.79-8.288-.986-2.018-2.906-2.461-6.706-2.367,1.871,2.339.683,11.153,3.551,13.81l-.592.2.2.592c-6.141-.334-12.112-.14-18.166.053a203.425,203.425,0,0,1-20.5-.053c-5.709-.383-11.178-2.009-13.02-5.919-4.547-9.653,4.31-18.517,11.444-19.73,4.28-.727,7.638.579,11.442,1.186-.665,1.833-.069,4.928-.788,6.708l-.592-.2-.2.592c-2.007-3.6-3.488-7.059-9.075-6.314-4.732.632-8.357,6.946-7.5,12.626,1.46,9.647,14.45,9.16,27.192,8.673a112.631,112.631,0,0,1,13.843.007c-.347-2.025-2.952-5.2-1.973-9.865-.6-2.291-4.156-1.629-5.524-3.157,1.21-2.516,5.079-1.577,7.891-1.577,2.988,0,6.639-.476,9.075,0,6.73,1.312,5.624,8.005,7.5,13.811,1.751.866,4.4.833,7.055.8.543-.007,1.088-.014,1.626-.013.436-12.412,1.124-28.476-.4-40.247l.594-.459-.2-.725c1.5-.6,3.351-.857,4.735-1.579h.788c-.8,13.538-.22,28.456-.394,42.613a26.307,26.307,0,0,0,7.248.4c1.575-.047,3.15-.095,4.588,0-1.328-2.354-3.46-3.29-4.339-5.523-3.967-10.1,4.423-20.468,15.783-17.757l-.592.461.2.725c-13.216-1.621-14.072,17.5-5.92,22.095,1.2-.023,2.552,0,3.954.017,4.5.062,9.456.125,11.042-1.2-.078,1.766-1.237,2.449-1.974,3.553a164.276,164.276,0,0,0-22.031.12c-4.37.225-8.623.45-12.679.45A68.661,68.661,0,0,1,461.142-7162.667Zm-177.56-.4a5.647,5.647,0,0,1-1.973-1.973l.67-.276.512-.512c10.506,4.988,11.367-11.988,7.892-18.546l.592-.459-.04-.014.04.014-.2-.723h7.5l-.2.59a5.088,5.088,0,0,1,.986-.2l-.986.2.592.2c-2.441,3.3-2.12,9.987-1.184,14.6l-.592-.2-.2.592c-.812,3.75-5.154,7.433-9.89,7.433A8.886,8.886,0,0,1,283.583-7163.063Zm92.727.4.2-.725-.072.024.072-.024-.592-.459c1.4-1.742,1.766-3.811,1.973-7.893.416-8.156.67-22.923,0-29.591a10.1,10.1,0,0,0-1.184-3.947l.592-.459c-.262-.1-.527-.205-.788-.329l.788.329-.2-.725c1.529-.705,3.7-.767,5.13-1.579h.788c.287,11.776-1.891,30.556,0,41.433a18.65,18.65,0,0,0,1.578,3.155l-.592.2.2.592Zm73.981-.592.986.2h-.045A3.665,3.665,0,0,1,450.291-7163.259Zm-66.289,0,.986.2h-.045A3.681,3.681,0,0,1,384-7163.259Zm-7.569-.109c-.328.111-.675.248-.914.3Zm-331.173-.483v-12.232h9.075c-2.585-16.568,8.007-27.02,24.07-23.673-.06,4.821.08,11.451,0,14.993-7.166-1.856-12.655,3.046-8.287,7.891a18.565,18.565,0,0,0,5.765.4c1.132-.029,2.263-.06,3.31,0,.892,3.451.153,8.53.394,12.628Zm234.129-5.741,2.892,4.28C280.841-7166.412,280.274-7168.168,279.389-7169.592Zm17.806-.771,2.087,4.285A18.278,18.278,0,0,1,297.2-7170.363ZM420.3-7180.621a3.741,3.741,0,0,1,.2,1.381Zm83.914-.788a2.834,2.834,0,0,1-.067,1.38Zm-5.985-5.722.592-.461-.539-.18.539.18-.2-.725c3.241-.084,4.912,1.4,7.1,2.368-.211,1.629-.578,3.1-.788,4.736l-.723-.2-.461.59C502.606-7183.614,500.98-7185.936,498.232-7187.13Zm-340.913,3.549a8.621,8.621,0,0,1-1.141.49Zm123.7-1.577c-.263.116-.527.232-.788.329Zm9.271,0c.248.059.612.2.948.315Zm26.832,0-.939.313C316.516-7184.957,316.877-7185.1,317.121-7185.158Zm-9.075,0c.234.056.573.189.9.3Zm-110.481-1.579a3.44,3.44,0,0,1,.986.2Zm57.608,0a6.282,6.282,0,0,1,.885.125Zm242.86-1.119.251.084ZM253.6-7195.417c-.263-1.666-.067-3.014,2.367-3.945,2.63-1.008,4.723.031,5.13,2.367a3.529,3.529,0,0,1-3.666,4.449A3.653,3.653,0,0,1,253.6-7195.417Zm-9.471,0c-.262-1.666-.067-3.014,2.369-3.945,2.628-1.008,4.721.031,5.128,2.367a3.528,3.528,0,0,1-3.664,4.449A3.655,3.655,0,0,1,244.124-7195.417Zm-16.177-3.157c.636-3.075,5.131-3.609,7.1-.788.65,3.694-1.34,5.282-3.391,5.283A3.649,3.649,0,0,1,227.947-7198.574Zm-9.471,0c.638-3.075,5.133-3.609,7.1-.788.649,3.694-1.341,5.282-3.392,5.283A3.649,3.649,0,0,1,218.476-7198.574Zm321.581-6.708a11.631,11.631,0,0,1-3.947-10.259c.53-5.149,4.672-9.158,10.653-10.257,5.409-.994,10.379.83,13.022,3.549,2.276,2.347,4.385,8.459,2.367,13.022-1.8,4.084-7.544,7.087-13.252,7.087A13.109,13.109,0,0,1,540.057-7205.282Zm-70.05-.572c.136.035.272.072.408.113Zm-290,0c.133.034.265.07.4.11Zm-.786-.218.786.218C179.742-7205.921,179.48-7205.985,179.218-7206.07Zm290.011,0,.778.216C469.748-7205.922,469.489-7205.986,469.229-7206.07Z" transform="translate(0.457 7237.461)" fill="#fff" stroke="rgba(0,0,0,0)" stroke-width="1"/>
</svg>
